@startuml
    set namespaceSeparator none
    hide empty fields
    hide empty methods

    class "<size:14>DocumentMenuItemFactoryImpl\n<size:10>com.hack23.cia.web.impl.ui.application.views.common.menufactory.impl" as com.hack23.cia.web.impl.ui.application.views.common.menufactory.impl.DocumentMenuItemFactoryImpl [[DocumentMenuItemFactoryImpl.html]] {
        +createDocumentMenuBar(MenuBar, String): void
        +createDocumentsMenuBar(MenuBar): void
        +createOverviewPage(VerticalLayout, String): void
    }

    abstract class "<size:14>AbstractMenuItemFactoryImpl\n<size:10>com.hack23.cia.web.impl.ui.application.views.common.menufactory.impl" as com.hack23.cia.web.impl.ui.application.views.common.menufactory.impl.AbstractMenuItemFactoryImpl [[AbstractMenuItemFactoryImpl.html]]
    interface "<size:14>DocumentMenuItemFactory\n<size:10>com.hack23.cia.web.impl.ui.application.views.common.menufactory.api" as com.hack23.cia.web.impl.ui.application.views.common.menufactory.api.DocumentMenuItemFactory [[../api/DocumentMenuItemFactory.html]] {
        {abstract} +createDocumentMenuBar(MenuBar, String): void
        {abstract} +createDocumentsMenuBar(MenuBar): void
        {abstract} +createOverviewPage(VerticalLayout, String): void
    }

    com.hack23.cia.web.impl.ui.application.views.common.menufactory.impl.AbstractMenuItemFactoryImpl <|-- com.hack23.cia.web.impl.ui.application.views.common.menufactory.impl.DocumentMenuItemFactoryImpl
    com.hack23.cia.web.impl.ui.application.views.common.menufactory.api.DocumentMenuItemFactory <|.. com.hack23.cia.web.impl.ui.application.views.common.menufactory.impl.DocumentMenuItemFactoryImpl

    center footer UMLDoclet 2.0.4, PlantUML 1.2019.06
@enduml
