@startuml
    set namespaceSeparator none
    hide empty fields
    hide empty methods

    class "<size:14>MinistryMenuItemFactoryImpl\n<size:10>com.hack23.cia.web.impl.ui.application.views.common.menufactory.impl" as com.hack23.cia.web.impl.ui.application.views.common.menufactory.impl.MinistryMenuItemFactoryImpl [[MinistryMenuItemFactoryImpl.html]] {
        +createMinistryMenuBar(MenuBar, String): void
        +createOverviewPage(VerticalLayout, String): void
    }

    abstract class "<size:14>AbstractMenuItemFactoryImpl\n<size:10>com.hack23.cia.web.impl.ui.application.views.common.menufactory.impl" as com.hack23.cia.web.impl.ui.application.views.common.menufactory.impl.AbstractMenuItemFactoryImpl [[AbstractMenuItemFactoryImpl.html]]
    interface "<size:14>MinistryMenuItemFactory\n<size:10>com.hack23.cia.web.impl.ui.application.views.common.menufactory.api" as com.hack23.cia.web.impl.ui.application.views.common.menufactory.api.MinistryMenuItemFactory [[../api/MinistryMenuItemFactory.html]] {
        {abstract} +createMinistryMenuBar(MenuBar, String): void
        {abstract} +createOverviewPage(VerticalLayout, String): void
    }

    com.hack23.cia.web.impl.ui.application.views.common.menufactory.impl.AbstractMenuItemFactoryImpl <|-- com.hack23.cia.web.impl.ui.application.views.common.menufactory.impl.MinistryMenuItemFactoryImpl
    com.hack23.cia.web.impl.ui.application.views.common.menufactory.api.MinistryMenuItemFactory <|.. com.hack23.cia.web.impl.ui.application.views.common.menufactory.impl.MinistryMenuItemFactoryImpl

    center footer UMLDoclet 2.0.6, PlantUML 1.2019.12
@enduml
