@startuml
    set namespaceSeparator none
    hide empty fields
    hide empty methods

    class "<size:14>CreateApplicationSessionService\n<size:10>com.hack23.cia.service.impl.action.application" as com.hack23.cia.service.impl.action.application.CreateApplicationSessionService [[CreateApplicationSessionService.html]] {
        +processService(CreateApplicationSessionRequest): CreateApplicationSessionResponse
    }

    abstract class "<size:14>AbstractCommonBusinessServiceImpl\n<size:10>com.hack23.cia.service.impl.action.common" as com.hack23.cia.service.impl.action.common.AbstractCommonBusinessServiceImpl<CreateApplicationSessionRequest, CreateApplicationSessionResponse> [[../common/AbstractCommonBusinessServiceImpl.html]]
    interface "<size:14>BusinessService\n<size:10>com.hack23.cia.service.impl.action.common" as com.hack23.cia.service.impl.action.common.BusinessService<CreateApplicationSessionRequest, CreateApplicationSessionResponse> [[../common/BusinessService.html]] {
        {abstract} +getSupportedService(): Class<? extends ServiceRequest>
        {abstract} +processService(CreateApplicationSessionRequest): CreateApplicationSessionResponse
    }

    com.hack23.cia.service.impl.action.common.AbstractCommonBusinessServiceImpl <|-- com.hack23.cia.service.impl.action.application.CreateApplicationSessionService
    com.hack23.cia.service.impl.action.common.BusinessService <|.. com.hack23.cia.service.impl.action.application.CreateApplicationSessionService

    center footer UMLDoclet 2.0.5, PlantUML 1.2019.08
@enduml
