@startuml
    set namespaceSeparator none
    hide empty fields
    hide empty methods

    class "<size:14>PoliticianGhantChartManagerImpl\n<size:10>com.hack23.cia.web.impl.ui.application.views.common.chartfactory.impl" as com.hack23.cia.web.impl.ui.application.views.common.chartfactory.impl.PoliticianGhantChartManagerImpl [[PoliticianGhantChartManagerImpl.html]] {
        #getComparator(): Comparator<AssignmentData>
        #getRoleMapping(): Function<AssignmentData, String>
        #getStepMapping(): StepMapping<AssignmentData>
    }

    abstract class "<size:14>AbstractGhantChartManagerImpl\n<size:10>com.hack23.cia.web.impl.ui.application.views.common.chartfactory.impl" as com.hack23.cia.web.impl.ui.application.views.common.chartfactory.impl.AbstractGhantChartManagerImpl<AssignmentData> [[AbstractGhantChartManagerImpl.html]] {
        {abstract} #getComparator(): Comparator<T>
        {abstract} #getRoleMapping(): Function<T, String>
        {abstract} #getStepMapping(): StepMapping<T>
    }
    interface "<size:14>PoliticianGhantChartManager\n<size:10>com.hack23.cia.web.impl.ui.application.views.common.chartfactory.api" as com.hack23.cia.web.impl.ui.application.views.common.chartfactory.api.PoliticianGhantChartManager [[../api/PoliticianGhantChartManager.html]] {
        {abstract} +createRoleGhant(AbstractOrderedLayout, Collection<AssignmentData>): void
    }

    com.hack23.cia.web.impl.ui.application.views.common.chartfactory.impl.AbstractGhantChartManagerImpl <|-- com.hack23.cia.web.impl.ui.application.views.common.chartfactory.impl.PoliticianGhantChartManagerImpl
    com.hack23.cia.web.impl.ui.application.views.common.chartfactory.api.PoliticianGhantChartManager <|.. com.hack23.cia.web.impl.ui.application.views.common.chartfactory.impl.PoliticianGhantChartManagerImpl

    center footer UMLDoclet 2.0.7, PlantUML 1.2019.12
@enduml
