@startuml
    set namespaceSeparator none
    hide empty fields
    hide empty methods

    class "<size:14>GovernmentBodyRankingMenuItemFactoryImpl\n<size:10>com.hack23.cia.web.impl.ui.application.views.common.menufactory.impl" as com.hack23.cia.web.impl.ui.application.views.common.menufactory.impl.GovernmentBodyRankingMenuItemFactoryImpl [[GovernmentBodyRankingMenuItemFactoryImpl.html]] {
        +createGovernmentBodyRankingMenuBar(MenuBar): void
        +createGovernmentBodyRankingTopics(MenuItem): void
        +createOverviewPage(VerticalLayout): void
    }

    abstract class "<size:14>AbstractMenuItemFactoryImpl\n<size:10>com.hack23.cia.web.impl.ui.application.views.common.menufactory.impl" as com.hack23.cia.web.impl.ui.application.views.common.menufactory.impl.AbstractMenuItemFactoryImpl [[AbstractMenuItemFactoryImpl.html]]
    interface "<size:14>GovernmentBodyRankingMenuItemFactory\n<size:10>com.hack23.cia.web.impl.ui.application.views.common.menufactory.api" as com.hack23.cia.web.impl.ui.application.views.common.menufactory.api.GovernmentBodyRankingMenuItemFactory [[../api/GovernmentBodyRankingMenuItemFactory.html]] {
        {abstract} +createGovernmentBodyRankingMenuBar(MenuBar): void
        {abstract} +createGovernmentBodyRankingTopics(MenuItem): void
        {abstract} +createOverviewPage(VerticalLayout): void
    }

    com.hack23.cia.web.impl.ui.application.views.common.menufactory.impl.AbstractMenuItemFactoryImpl <|-- com.hack23.cia.web.impl.ui.application.views.common.menufactory.impl.GovernmentBodyRankingMenuItemFactoryImpl
    com.hack23.cia.web.impl.ui.application.views.common.menufactory.api.GovernmentBodyRankingMenuItemFactory <|.. com.hack23.cia.web.impl.ui.application.views.common.menufactory.impl.GovernmentBodyRankingMenuItemFactoryImpl

    center footer UMLDoclet 2.0.7, PlantUML 1.2019.12
@enduml
