@startuml
    set namespaceSeparator none
    hide empty fields
    hide empty methods

    class "<size:14>DecisionChartDataManagerImpl\n<size:10>com.hack23.cia.web.impl.ui.application.views.common.chartfactory.impl" as com.hack23.cia.web.impl.ui.application.views.common.chartfactory.impl.DecisionChartDataManagerImpl [[DecisionChartDataManagerImpl.html]] {
        +createDecisionTypeChart(AbstractOrderedLayout): void
        +createDecisionTypeChart(AbstractOrderedLayout, String): void
    }

    abstract class "<size:14>AbstractChartDataManagerImpl\n<size:10>com.hack23.cia.web.impl.ui.application.views.common.chartfactory.impl" as com.hack23.cia.web.impl.ui.application.views.common.chartfactory.impl.AbstractChartDataManagerImpl [[AbstractChartDataManagerImpl.html]]
    interface "<size:14>DecisionChartDataManager\n<size:10>com.hack23.cia.web.impl.ui.application.views.common.chartfactory.api" as com.hack23.cia.web.impl.ui.application.views.common.chartfactory.api.DecisionChartDataManager [[../api/DecisionChartDataManager.html]] {
        {abstract} +createDecisionTypeChart(AbstractOrderedLayout): void
        {abstract} +createDecisionTypeChart(AbstractOrderedLayout, String): void
    }

    com.hack23.cia.web.impl.ui.application.views.common.chartfactory.impl.AbstractChartDataManagerImpl <|-- com.hack23.cia.web.impl.ui.application.views.common.chartfactory.impl.DecisionChartDataManagerImpl
    com.hack23.cia.web.impl.ui.application.views.common.chartfactory.api.DecisionChartDataManager <|.. com.hack23.cia.web.impl.ui.application.views.common.chartfactory.impl.DecisionChartDataManagerImpl

    center footer UMLDoclet 2.0.12, PlantUML 1.2020.16
@enduml
