@startuml
    set namespaceSeparator none
    hide empty fields
    hide empty methods

    class "<size:14>OrgDocumentChartDataManagerImpl\n<size:10>com.hack23.cia.web.impl.ui.application.views.common.chartfactory.impl" as com.hack23.cia.web.impl.ui.application.views.common.chartfactory.impl.OrgDocumentChartDataManagerImpl [[OrgDocumentChartDataManagerImpl.html]] {
        +createDocumentHistoryChartByOrg(AbstractOrderedLayout, String): void
    }

    abstract class "<size:14>AbstractChartDataManagerImpl\n<size:10>com.hack23.cia.web.impl.ui.application.views.common.chartfactory.impl" as com.hack23.cia.web.impl.ui.application.views.common.chartfactory.impl.AbstractChartDataManagerImpl [[AbstractChartDataManagerImpl.html]]
    interface "<size:14>OrgDocumentChartDataManager\n<size:10>com.hack23.cia.web.impl.ui.application.views.common.chartfactory.api" as com.hack23.cia.web.impl.ui.application.views.common.chartfactory.api.OrgDocumentChartDataManager [[../api/OrgDocumentChartDataManager.html]] {
        {abstract} +createDocumentHistoryChartByOrg(AbstractOrderedLayout, String): void
    }

    com.hack23.cia.web.impl.ui.application.views.common.chartfactory.impl.AbstractChartDataManagerImpl <|-- com.hack23.cia.web.impl.ui.application.views.common.chartfactory.impl.OrgDocumentChartDataManagerImpl
    com.hack23.cia.web.impl.ui.application.views.common.chartfactory.api.OrgDocumentChartDataManager <|.. com.hack23.cia.web.impl.ui.application.views.common.chartfactory.impl.OrgDocumentChartDataManagerImpl

    center footer UMLDoclet 2.0.12, PlantUML 1.2020.16
@enduml
